<svg width="48" height="41" viewBox="0 0 48 41" fill="none" xmlns="http://www.w3.org/2000/svg">
<g filter="url(#filter0_f_3_281)">
<path d="M42.7532 9.35641C41.3926 9.95964 39.9282 10.3665 38.3917 10.5486C39.9605 9.61194 41.1634 8.1282 41.7307 6.35821C40.2633 7.22672 38.6389 7.85693 36.9086 8.19714C35.5239 6.72539 33.5501 5.80518 31.366 5.80518C27.1728 5.80518 23.773 9.19604 23.773 13.379C23.773 13.9717 23.8399 14.5495 23.9699 15.1048C17.6587 14.7885 12.0627 11.7739 8.31731 7.1915C7.66365 8.30955 7.28949 9.61044 7.28949 10.9998C7.28949 13.627 8.62987 15.9456 10.6675 17.3034C9.42328 17.2637 8.25195 16.9227 7.22788 16.3555C7.22713 16.3869 7.22713 16.4192 7.22713 16.4514C7.22713 20.1203 9.84477 23.1807 13.3189 23.8776C12.6818 24.0499 12.0109 24.1428 11.3181 24.1428C10.8283 24.1428 10.3527 24.0956 9.8891 24.0065C10.8561 27.0151 13.6601 29.2055 16.9825 29.2662C14.3836 31.2978 11.11 32.5087 7.5517 32.5087C6.93936 32.5087 6.33454 32.4728 5.74023 32.4023C9.1017 34.5522 13.0928 35.8052 17.3807 35.8052C31.3487 35.8052 38.986 24.265 38.986 14.2565C38.986 13.9283 38.9793 13.6008 38.965 13.2756C40.4481 12.21 41.7359 10.8754 42.7532 9.35641Z" fill="#13488C" fill-opacity="0.5"/>
</g>
<path d="M20.883 29.0163C17.816 28.9602 15.2056 27.0276 14.1615 24.3215C14.5055 24.3684 14.8561 24.3928 15.2141 24.3928C15.9293 24.3928 16.6222 24.2969 17.2802 24.1189L17.2641 23.6324C14.005 22.9787 11.5262 20.1744 11.38 16.77C12.3444 17.2382 13.4207 17.517 14.5555 17.5533L15.4312 17.5812L14.7021 17.0954C12.7311 15.7819 11.4355 13.54 11.4355 10.9998C11.4355 9.78457 11.7313 8.63999 12.2552 7.63285C16.0407 12.1087 21.5999 15.0411 27.8533 15.3545L28.185 15.3711L28.1093 15.0478C27.9837 14.5115 27.919 13.9529 27.919 13.379C27.919 9.33472 31.2063 6.05518 35.262 6.05518C37.3746 6.05518 39.2833 6.94502 40.6225 8.36845L40.7172 8.46911L40.8528 8.44245C42.3791 8.14235 43.8243 7.62024 45.1545 6.91051C44.5438 8.34348 43.4874 9.54118 42.1596 10.334L42.3171 10.7969C43.5798 10.6473 44.7948 10.3482 45.9451 9.91489C45.0336 11.1218 43.9422 12.1909 42.7151 13.0725L42.6053 13.1514L42.6112 13.2865C42.6253 13.6079 42.632 13.9317 42.632 14.2565C42.632 24.1568 35.0785 35.5552 21.2767 35.5552C17.417 35.5552 13.801 34.5283 10.6763 32.7399C10.932 32.7524 11.1892 32.7587 11.4477 32.7587C15.0637 32.7587 18.3911 31.5279 21.0324 29.4632L21.5877 29.0291L20.883 29.0163Z" fill="white" fill-opacity="0.9" stroke="url(#paint0_linear_3_281)" stroke-width="0.5"/>
<defs>
<filter id="filter0_f_3_281" x="0.740234" y="0.805176" width="47.0129" height="40" filterUnits="userSpaceOnUse" color-interpolation-filters="sRGB">
<feFlood flood-opacity="0" result="BackgroundImageFix"/>
<feBlend mode="normal" in="SourceGraphic" in2="BackgroundImageFix" result="shape"/>
<feGaussianBlur stdDeviation="2.5" result="effect1_foregroundBlur_3_281"/>
</filter>
<linearGradient id="paint0_linear_3_281" x1="28.1427" y1="5.80518" x2="28.1427" y2="35.8052" gradientUnits="userSpaceOnUse">
<stop stop-color="white"/>
<stop offset="1" stop-color="white" stop-opacity="0"/>
</linearGradient>
</defs>
</svg>
