<svg width="56" height="46" viewBox="0 0 56 46" fill="none" xmlns="http://www.w3.org/2000/svg">
<g filter="url(#filter0_f_3_303)">
<path d="M44.8438 13.9846C44.4361 12.4519 43.2348 11.245 41.7093 10.8354C38.9441 10.0909 27.8572 10.0909 27.8572 10.0909C27.8572 10.0909 16.7702 10.0909 14.005 10.8354C12.4798 11.245 11.2783 12.4519 10.8706 13.9846C10.1299 16.7625 10.1299 22.5587 10.1299 22.5587C10.1299 22.5587 10.1299 28.3547 10.8706 31.1323C11.2783 32.665 12.4798 33.8723 14.005 34.2818C16.7702 35.026 27.8572 35.026 27.8572 35.026C27.8572 35.026 38.9441 35.026 41.7093 34.2818C43.2348 33.8723 44.4361 32.665 44.8438 31.1323C45.5844 28.3547 45.5844 22.5587 45.5844 22.5587C45.5844 22.5587 45.5844 16.7625 44.8438 13.9846ZM24.3115 27.902V17.2153L33.5227 22.5587L24.3115 27.902Z" fill="#9B0000"/>
</g>
<path d="M46.5502 12.4904L46.5502 12.4905C46.913 13.8512 47.0975 15.9706 47.1902 17.7678C47.2363 18.6626 47.2594 19.4712 47.2709 20.0561C47.2767 20.3485 47.2795 20.5848 47.281 20.7479C47.2817 20.8295 47.2821 20.8927 47.2822 20.9355L47.2824 20.984L47.2824 20.9963L47.2824 20.9993V21V21.0002L47.5324 21.0002L47.2824 21.0002V21.0004V21.0011L47.2824 21.0042L47.2824 21.0164L47.2822 21.0649C47.2821 21.1077 47.2817 21.1709 47.281 21.2525C47.2795 21.4156 47.2767 21.6519 47.2709 21.9443C47.2594 22.5292 47.2363 23.3377 47.1902 24.2326C47.0975 26.0296 46.913 28.1489 46.5502 29.5095L46.5502 29.5096C46.1654 30.9563 45.0311 32.0957 43.5925 32.4819L43.5923 32.482C42.9271 32.661 41.7382 32.7995 40.3081 32.9043C38.8849 33.0085 37.2439 33.0782 35.6868 33.1246C34.1302 33.1711 32.6596 33.1943 31.578 33.2059C31.0373 33.2117 30.5939 33.2146 30.2858 33.2161C30.1317 33.2168 30.0115 33.2172 29.9298 33.2174L29.8368 33.2175L29.8131 33.2175L29.8071 33.2175H29.8057H29.8053C29.8052 33.2175 29.8052 33.2175 29.8052 33.4675C29.8052 33.2175 29.8052 33.2175 29.8051 33.2175H29.8047H29.8032L29.7973 33.2175L29.7736 33.2175L29.6806 33.2174C29.5989 33.2172 29.4786 33.2168 29.3246 33.2161C29.0164 33.2146 28.5731 33.2117 28.0323 33.2059C26.9507 33.1943 25.4801 33.1711 23.9235 33.1246C22.3665 33.0782 20.7254 33.0085 19.3023 32.9043C17.8721 32.7995 16.6832 32.661 16.018 32.482L16.0179 32.4819C14.5794 32.0957 13.445 30.9563 13.0602 29.5096L13.0602 29.5094C12.6974 28.1489 12.5128 26.0296 12.4201 24.2326C12.374 23.3377 12.3509 22.5292 12.3394 21.9443C12.3336 21.6519 12.3308 21.4156 12.3293 21.2525C12.3286 21.1709 12.3282 21.1077 12.3281 21.0649L12.3279 21.0164L12.3279 21.0042L12.3279 21.0011L12.3279 21.0004L12.3279 21.0002L12.0779 21.0002L12.3279 21.0002L12.3279 21L12.3279 20.9993L12.3279 20.9963L12.3279 20.984L12.3281 20.9355C12.3282 20.8927 12.3286 20.8295 12.3293 20.7479C12.3308 20.5848 12.3336 20.3485 12.3394 20.0561C12.3509 19.4712 12.374 18.6626 12.4201 17.7678C12.5128 15.9706 12.6974 13.8512 13.0602 12.4906L13.0602 12.4904C13.445 11.0437 14.5794 9.90469 16.0179 9.51835L16.018 9.51831C16.6832 9.33922 17.8721 9.20069 19.3023 9.09586C20.7254 8.99155 22.3665 8.92189 23.9235 8.87541C25.4801 8.82895 26.9507 8.80571 28.0323 8.79409C28.5731 8.78828 29.0164 8.78537 29.3246 8.78392C29.4786 8.7832 29.5989 8.78283 29.6806 8.78265L29.7736 8.78249L29.7973 8.78247L29.8032 8.78247L29.8047 8.78247L29.8051 8.78247C29.8052 8.78247 29.8052 8.78247 29.8052 8.53247C29.8052 8.78247 29.8052 8.78247 29.8053 8.78247L29.8057 8.78247L29.8071 8.78247L29.8131 8.78247L29.8368 8.78249L29.9298 8.78265C30.0115 8.78283 30.1317 8.7832 30.2858 8.78392C30.5939 8.78537 31.0373 8.78828 31.578 8.79409C32.6596 8.80571 34.1302 8.82895 35.6868 8.87541C37.2439 8.92189 38.8849 8.99155 40.3081 9.09586C41.7382 9.20069 42.9271 9.33922 43.5923 9.51831L43.5924 9.51835C45.0312 9.90469 46.1654 11.0437 46.5502 12.4904ZM26.0095 26.3435V26.7775L26.385 26.5598L35.5962 21.2165L35.969 21.0002L35.5962 20.784L26.385 15.4406L26.0095 15.2228V15.6568V26.3435Z" fill="white" fill-opacity="0.9" stroke="url(#paint0_linear_3_303)" stroke-width="0.5"/>
<defs>
<filter id="filter0_f_3_303" x="0.129883" y="0.0909424" width="55.4546" height="44.9351" filterUnits="userSpaceOnUse" color-interpolation-filters="sRGB">
<feFlood flood-opacity="0" result="BackgroundImageFix"/>
<feBlend mode="normal" in="SourceGraphic" in2="BackgroundImageFix" result="shape"/>
<feGaussianBlur stdDeviation="5" result="effect1_foregroundBlur_3_303"/>
</filter>
<linearGradient id="paint0_linear_3_303" x1="29.8052" y1="8.53247" x2="29.8052" y2="33.4675" gradientUnits="userSpaceOnUse">
<stop stop-color="white"/>
<stop offset="1" stop-color="white" stop-opacity="0"/>
</linearGradient>
</defs>
</svg>
